<svg xmlns="http://www.w3.org/2000/svg" width="772.669" height="111.429" viewBox="0 0 772.669 111.429">
  <g id="SelfTaughtDev_logo" data-name="SelfTaughtDev logo" transform="translate(-113.666 -444.536)">
    <g id="Group_1" data-name="Group 1">
      <path id="Path_1" data-name="Path 1" d="M133.5,518.7l-19.838-20.384L133.5,477.84h16.107l-19.929,20.476L149.611,518.7Z" fill="#5956e9"/>
      <path id="Path_2" data-name="Path 2" d="M199.66,522.2a17.636,17.636,0,0,1-7.28,6.643,25.224,25.224,0,0,1-11.739,2.5,30.461,30.461,0,0,1-12.194-2.321,20.6,20.6,0,0,1-8.6-6.688,19.288,19.288,0,0,1-3.686-10.192h13.65a10.432,10.432,0,0,0,3.14,6.507,9.844,9.844,0,0,0,7.144,2.594,8.312,8.312,0,0,0,6.142-2.139,7.455,7.455,0,0,0,2.138-5.506,7.216,7.216,0,0,0-1.729-4.959,12.623,12.623,0,0,0-4.368-3.141q-2.64-1.18-7.28-2.73a71.675,71.675,0,0,1-9.828-3.958,18.155,18.155,0,0,1-6.507-5.688,16.292,16.292,0,0,1-2.685-9.737q0-8.281,5.961-13.059t15.788-4.777q10.191,0,16.244,4.913a18.554,18.554,0,0,1,6.871,13.1H187.01a9.642,9.642,0,0,0-2.912-5.688,9.048,9.048,0,0,0-6.461-2.229,8.53,8.53,0,0,0-5.733,1.865,7.6,7.6,0,0,0-.5,10.1,12.831,12.831,0,0,0,4.277,3.049,69.941,69.941,0,0,0,7.053,2.639,93.717,93.717,0,0,1,10.055,4.1,17.713,17.713,0,0,1,6.6,5.733q2.73,3.822,2.73,10.01A17.422,17.422,0,0,1,199.66,522.2Z" fill="#fff" stroke="#000" stroke-width="1"/>
      <path id="Path_3" data-name="Path 3" d="M258.536,507.962H221.59q.273,6.735,3.64,9.92a11.706,11.706,0,0,0,8.372,3.185,12.14,12.14,0,0,0,7.417-2.185,9.669,9.669,0,0,0,3.776-5.914h13.559a21.694,21.694,0,0,1-4.277,9.464,22.345,22.345,0,0,1-8.417,6.552,28.834,28.834,0,0,1-24.524-.774,22.069,22.069,0,0,1-8.918-8.963,31.333,31.333,0,0,1,0-27.528,21.715,21.715,0,0,1,8.918-8.964,27.172,27.172,0,0,1,13.1-3.094,26.581,26.581,0,0,1,13.059,3.094,21.819,21.819,0,0,1,8.645,8.509,24.705,24.705,0,0,1,3.048,12.331A24.423,24.423,0,0,1,258.536,507.962Zm-15.7-15.015a12.324,12.324,0,0,0-8.6-3.185,12.61,12.61,0,0,0-8.736,3.185q-3.549,3.186-3.913,9.373h24.479Q246.342,496.133,242.839,492.947Z" fill="#fff" stroke="#000" stroke-width="1"/>
      <path id="Path_4" data-name="Path 4" d="M280.921,463.372v67.34H268.09v-67.34h12.831Z" fill="#fff" stroke="#000" stroke-width="1"/>
      <path id="Path_5" data-name="Path 5" d="M309.585,473.2q-2.275,2-2.275,7.008v.09H317.5v10.83H307.31v39.584H294.479V491.128h-6.461V480.3h6.461v-1.183q0-9.009,5.142-13.878t15.243-4.867q1.727,0,2.639.09v11.1Q311.858,471.2,309.585,473.2Z" fill="#fff" stroke="#000" stroke-width="1"/>
      <path id="Path_6" data-name="Path 6" d="M352.081,519.7v11.011h-6.734q-8.463,0-12.967-4.095t-4.5-13.649v-21.84h-7.007V480.3h7.007V467.831h12.831V480.3h11.284v10.83H340.707V513.15q0,3.642,1.456,5.1t4.914,1.456h5Z" fill="#fff" stroke="#000" stroke-width="1"/>
      <path id="Path_7" data-name="Path 7" d="M391.938,482.665a16.356,16.356,0,0,1,6.461,8.1V480.3h12.74v50.414H398.4V520.156a16.593,16.593,0,0,1-6.461,8.144,19.16,19.16,0,0,1-10.92,3.049,21.643,21.643,0,0,1-11.466-3.095,20.886,20.886,0,0,1-7.962-8.963,34.581,34.581,0,0,1,0-27.573,20.906,20.906,0,0,1,7.962-8.964,21.669,21.669,0,0,1,11.466-3.094A19.386,19.386,0,0,1,391.938,482.665Zm-16.562,12.1q-3.641,3.912-3.64,10.737t3.64,10.693a13.789,13.789,0,0,0,19.246-.092q3.775-3.958,3.777-10.6,0-6.732-3.777-10.691a12.694,12.694,0,0,0-9.6-3.959A12.543,12.543,0,0,0,375.376,494.768Z" fill="#fff" stroke="#000" stroke-width="1"/>
      <path id="Path_8" data-name="Path 8" d="M471.017,480.3v50.414H458.186V520.521a16.076,16.076,0,0,1-6.6,7.963,19.622,19.622,0,0,1-10.6,2.866q-8.736,0-13.923-5.733T421.877,509.6V480.3h12.74v27.847q0,6.006,3.094,9.327a10.882,10.882,0,0,0,8.372,3.322,11.429,11.429,0,0,0,8.827-3.549q3.276-3.551,3.276-10.193V480.3h12.831Z" fill="#fff" stroke="#000" stroke-width="1"/>
      <path id="Path_9" data-name="Path 9" d="M513.331,482.665a16.367,16.367,0,0,1,6.461,8.1V480.3h12.739v50.6a27.993,27.993,0,0,1-2.775,12.6,20.47,20.47,0,0,1-8.28,8.781,26.217,26.217,0,0,1-13.332,3.185q-10.92,0-17.654-5.187a21.456,21.456,0,0,1-8.19-14.1h12.648a10.448,10.448,0,0,0,4.231,5.96,14.024,14.024,0,0,0,8.054,2.139,12.6,12.6,0,0,0,9.1-3.321q3.457-3.323,3.458-10.056V520.158a16.6,16.6,0,0,1-6.461,8.144,19.163,19.163,0,0,1-10.921,3.049,21.645,21.645,0,0,1-11.466-3.095,20.886,20.886,0,0,1-7.962-8.963,34.581,34.581,0,0,1,0-27.573,20.9,20.9,0,0,1,7.962-8.964,21.669,21.669,0,0,1,11.466-3.094A19.375,19.375,0,0,1,513.331,482.665Zm-16.562,12.1q-3.641,3.912-3.64,10.737t3.64,10.693a13.789,13.789,0,0,0,19.246-.092q3.777-3.958,3.777-10.6,0-6.732-3.777-10.691a12.694,12.694,0,0,0-9.6-3.959A12.543,12.543,0,0,0,496.769,494.768Z" fill="#fff" stroke="#000" stroke-width="1"/>
      <path id="Path_10" data-name="Path 10" d="M588.132,485.3q5.187,5.733,5.188,16.107v29.3H580.58V502.866q0-6.006-3.094-9.327a11,11,0,0,0-8.463-3.321,11.316,11.316,0,0,0-8.736,3.549q-3.276,3.547-3.276,10.191v26.754h-12.83v-67.34h12.83V490.4a16.065,16.065,0,0,1,6.6-7.963,19.62,19.62,0,0,1,10.6-2.866Q582.944,479.57,588.132,485.3Z" fill="#fff" stroke="#000" stroke-width="1"/>
      <path id="Path_11" data-name="Path 11" d="M631.538,519.7v11.011H624.8q-8.463,0-12.967-4.095t-4.505-13.649v-21.84h-7.007V480.3h7.007V467.831h12.831V480.3h11.284v10.83H620.163V513.15q0,3.642,1.456,5.1t4.914,1.456h5.005Z" fill="#fff" stroke="#000" stroke-width="1"/>
      <path id="Path_12" data-name="Path 12" d="M693.235,515.333a27.865,27.865,0,0,1-11.6,11.33,37.9,37.9,0,0,1-18.064,4.049h-22.84V466.466h22.84a38.621,38.621,0,0,1,18.064,3.959,27.391,27.391,0,0,1,11.6,11.193,37.488,37.488,0,0,1,0,33.715Zm-14.7-1.547q5.684-5.46,5.688-15.287,0-9.918-5.688-15.379t-16.063-5.461h-8.918v41.588h8.918Q672.852,519.247,678.539,513.786Z" fill="#fff" stroke="#000" stroke-width="1"/>
      <path id="Path_13" data-name="Path 13" d="M753.84,507.962H716.894q.273,6.735,3.64,9.92a11.706,11.706,0,0,0,8.372,3.185,12.14,12.14,0,0,0,7.417-2.185,9.669,9.669,0,0,0,3.776-5.914h13.559a21.7,21.7,0,0,1-4.276,9.464,22.348,22.348,0,0,1-8.418,6.552,28.834,28.834,0,0,1-24.524-.774,22.07,22.07,0,0,1-8.918-8.963,31.333,31.333,0,0,1,0-27.528,21.715,21.715,0,0,1,8.918-8.964,27.175,27.175,0,0,1,13.1-3.094,26.576,26.576,0,0,1,13.058,3.094,21.821,21.821,0,0,1,8.646,8.509,24.866,24.866,0,0,1,2.592,16.7Zm-15.7-15.015a12.322,12.322,0,0,0-8.6-3.185,12.61,12.61,0,0,0-8.736,3.185q-3.549,3.186-3.913,9.373h24.479Q741.646,496.133,738.142,492.947Z" fill="#fff" stroke="#000" stroke-width="1"/>
      <path id="Path_14" data-name="Path 14" d="M785.324,517.882l12.74-37.584h13.649l-18.654,50.414H777.407L758.752,480.3h13.741Z" fill="#fff" stroke="#000" stroke-width="1"/>
      <path id="Path_15" data-name="Path 15" d="M849.115,444.536,824.454,547.183H812.078l24.661-102.647h12.376Z" fill="#5956e9"/>
      <path id="Path_16" data-name="Path 16" d="M850.389,477.841h16.017l19.929,20.476L866.405,518.7H850.388l19.838-20.384Z" fill="#5956e9"/>
    </g>
  </g>
</svg>
